<svg width="291" height="377" viewBox="0 0 291 377" fill="none" xmlns="http://www.w3.org/2000/svg">
<path d="M145.612 376.606L0 83.377H69.1523C57.3211 99.0365 50.3135 118.497 50.3135 139.535C50.3135 165.515 60.9176 189.026 78.0693 205.996C95.2235 222.97 118.963 233.46 145.201 233.46C171.419 233.46 195.181 222.967 212.352 205.978C229.524 188.986 240.165 165.497 240.165 139.535C240.165 118.5 233.126 99.047 221.262 83.377H290.452L145.612 376.606Z" fill="#F07C00"/>
<path d="M145.36 371.159L70.6572 197.237C72.9503 200.109 75.4088 202.845 78.0195 205.428C95.1738 222.401 118.914 232.892 145.151 232.892C171.369 232.891 195.13 222.398 212.301 205.409C214.919 202.818 217.384 200.075 219.685 197.196L145.36 371.159ZM89.3896 63C85.3613 65.9016 81.5718 69.1068 78.0566 72.5811C60.8863 89.5512 50.2627 113.063 50.2627 138.967C50.2627 143.316 50.5603 147.597 51.1357 151.789L13 63H89.3896ZM239.306 151.271C239.838 147.245 240.114 143.138 240.114 138.967C240.114 113.082 229.455 89.5928 212.263 72.6006C208.74 69.1187 204.943 65.9068 200.906 63H277.02L239.306 151.271Z" fill="#6600CC"/>
<path d="M91.4102 216.977C106.689 227.375 125.22 233.46 145.201 233.46C164.528 233.46 182.52 227.757 197.521 217.954L143.782 376.454L91.4102 216.977ZM256.698 43.416L234.729 108.212C229.949 94.8982 222.216 82.9558 212.313 73.1689C195.124 56.1796 171.41 45.6113 145.201 45.6113C118.992 45.6114 95.2808 56.176 78.1074 73.1494C68.2003 82.9409 60.473 94.9108 55.708 108.261L34.3213 43.1367L144.505 0L256.698 43.416Z" fill="#0000FF"/>
<path fill-rule="evenodd" clip-rule="evenodd" d="M103.051 56.4928C102.346 57.5883 121.99 114.045 149.492 120.593C175.287 126.737 209.046 83.0262 209.046 83.0262C138.217 193.635 112.118 111.107 103.051 56.4928Z" fill="#6600CC"/>
<path fill-rule="evenodd" clip-rule="evenodd" d="M234.781 110.601C233.644 110.074 172.608 135.574 164.841 162.153C157.559 187.079 203.489 213.19 203.489 213.19C86.8667 160.784 176.014 125.963 234.781 110.601Z" fill="#F07C00"/>
<path fill-rule="evenodd" clip-rule="evenodd" d="M59.2929 103.301C60.2941 102.721 114.607 128.38 121.757 156.312C128.46 182.507 88.0515 211.086 88.0515 211.086C190.796 153.207 111.493 118.293 59.2929 103.301Z" fill="#0000FF"/>
<path fill-rule="evenodd" clip-rule="evenodd" d="M142.32 58.3986C145.034 65.2696 141.1 73.3963 133.525 76.5433C125.95 79.6922 117.618 76.6856 114.907 69.8115C112.186 62.9452 116.133 54.8226 123.706 51.6648C131.281 48.5164 139.607 51.5338 142.32 58.3986Z" fill="#6600CC"/>
<path fill-rule="evenodd" clip-rule="evenodd" d="M232.893 134.207C234.403 141.431 229.143 148.763 221.141 150.594C213.153 152.406 205.442 148.024 203.939 140.793C202.424 133.569 207.687 126.235 215.691 124.406C223.682 122.594 231.388 126.963 232.893 134.207Z" fill="#F07C00"/>
<path fill-rule="evenodd" clip-rule="evenodd" d="M87.4999 128.078C89.0125 135.298 83.7497 142.638 75.7556 144.458C67.7684 146.279 60.0492 141.896 58.5405 134.665C57.0396 127.45 62.3024 120.104 70.2965 118.28C78.2887 116.466 85.9941 120.839 87.4999 128.078Z" fill="#0000FF"/>
</svg>
